# xmcd CD database file
#
# Track frame offsets:
#	150
#	15417
#	31680
#	44707
#	57110
#	66777
#	80005
#	93455
#	106285
#	120582
#
# Disc length: 1810 seconds
#
# Revision: 3
# Processed by: cddbd v1.5.1PL0 Copyright (c) Steve Scherf et al.
# Submitted via: CDex 1.51
#
DISCID=7907100a
DTITLE=Charley Pride - Night Games
DYEAR=1983
DGENRE=Funk
TTITLE0=Draw The Line
TTITLE1=Love On A Blue Rainy Day
TTITLE2=The Late Show
TTITLE3=Night Games
TTITLE4=Down In Louisiana
TTITLE5=Every Heart Should Have One
TTITLE6=Thanks For Wakin' Me Up This Mornin'
TTITLE7=Livin' It Up (Livin' It Down)
TTITLE8=Just Can't Leave That Woman Alone
TTITLE9=I Could Let Her Get Close To Me (But She Could Never Get Close To You)
EXTD=YEAR: 1983
EXTT0=
EXTT1=
EXTT2=
EXTT3=
EXTT4=
EXTT5=
EXTT6=
EXTT7=
EXTT8=
EXTT9=
PLAYORDER=
